name Walk7.mot
datacolumns 19
datarows 15
range 2.43800000 2.45200000
endheader

                time	   L_ground_force_vx	   L_ground_force_vy	   L_ground_force_vz	   L_ground_force_px	   L_ground_force_py	   L_ground_force_pz	   R_ground_force_vx	   R_ground_force_vy	   R_ground_force_vz	   R_ground_force_px	   R_ground_force_py	   R_ground_force_pz	   L_ground_torque_x	   L_ground_torque_y	   L_ground_torque_z	   R_ground_torque_x	   R_ground_torque_y	   R_ground_torque_z	
          2.43800000	          0.06866656	          0.20021291	         -0.00237918	         -0.00034181	          0.00000000	         -0.00011415	        -19.18565773	        683.50239131	        -45.44465912	          0.21424089	          0.00000000	          0.07544333	          0.00000000	          0.00099248	          0.00000000	          0.00000000	          7.55960961	          0.00000000	
          2.43900000	          0.06614787	          0.19070237	         -0.00248721	         -0.00034128	          0.00000000	         -0.00011418	        -18.82644476	        682.27554914	        -45.35438683	          0.21435242	          0.00000000	          0.07541990	          0.00000000	          0.00096947	          0.00000000	          0.00000000	          7.49899587	          0.00000000	
          2.44000000	          0.06359337	          0.18127983	         -0.00257665	         -0.00033952	          0.00000000	         -0.00011378	        -18.46972703	        681.05877479	        -45.26410643	          0.21446647	          0.00000000	          0.07539619	          0.00000000	          0.00094475	          0.00000000	          0.00000000	          7.43878954	          0.00000000	
          2.44100000	          0.06101576	          0.17197341	         -0.00264874	         -0.00033662	          0.00000000	         -0.00011299	        -18.11554625	        679.85275817	        -45.17366438	          0.21458299	          0.00000000	          0.07537216	          0.00000000	          0.00091857	          0.00000000	          0.00000000	          7.37896892	          0.00000000	
          2.44200000	          0.05842674	          0.16280842	         -0.00270470	         -0.00033269	          0.00000000	         -0.00011183	        -17.76394350	        678.65819928	        -45.08289326	          0.21470193	          0.00000000	          0.07534779	          0.00000000	          0.00089114	          0.00000000	          0.00000000	          7.31951095	          0.00000000	
          2.44300000	          0.05583708	          0.15380747	         -0.00274569	         -0.00032784	          0.00000000	         -0.00011035	        -17.41495846	        677.47580760	        -44.99161353	          0.21482324	          0.00000000	          0.07532308	          0.00000000	          0.00086268	          0.00000000	          0.00000000	          7.26039146	          0.00000000	
          2.44400000	          0.05325660	          0.14499060	         -0.00277281	         -0.00032217	          0.00000000	         -0.00010858	        -17.06862889	        676.30630019	        -44.89963537	          0.21494689	          0.00000000	          0.07529798	          0.00000000	          0.00083337	          0.00000000	          0.00000000	          7.20158532	          0.00000000	
          2.44500000	          0.05069428	          0.13637550	         -0.00278715	         -0.00031576	          0.00000000	         -0.00010655	        -16.72499050	        675.15039850	        -44.80676017	          0.21507280	          0.00000000	          0.07527251	          0.00000000	          0.00080341	          0.00000000	          0.00000000	          7.14306652	          0.00000000	
          2.44600000	          0.04815825	          0.12797756	         -0.00278973	         -0.00030870	          0.00000000	         -0.00010428	        -16.38407705	        674.00882382	        -44.71278183	          0.21520094	          0.00000000	          0.07524663	          0.00000000	          0.00077296	          0.00000000	          0.00000000	          7.08480809	          0.00000000	
          2.44700000	          0.04565588	          0.11981005	         -0.00278156	         -0.00030107	          0.00000000	         -0.00010182	        -16.04592053	        672.88229197	        -44.61748810	          0.21533124	          0.00000000	          0.07522034	          0.00000000	          0.00074218	          0.00000000	          0.00000000	          7.02678189	          0.00000000	
          2.44800000	          0.04319374	          0.11188424	         -0.00276357	         -0.00029296	          0.00000000	         -0.00009918	        -15.71055108	        671.77150802	        -44.52066238	          0.21546367	          0.00000000	          0.07519363	          0.00000000	          0.00071121	          0.00000000	          0.00000000	          6.96895845	          0.00000000	
          2.44900000	          0.04077772	          0.10420953	         -0.00273666	         -0.00028443	          0.00000000	         -0.00009639	        -15.37799655	        670.67716151	        -44.42208617	          0.21559816	          0.00000000	          0.07516649	          0.00000000	          0.00068019	          0.00000000	          0.00000000	          6.91130697	          0.00000000	
          2.45000000	          0.03841303	          0.09679357	         -0.00270171	         -0.00027555	          0.00000000	         -0.00009348	        -15.04828185	        669.59992255	        -44.32154215	          0.21573467	          0.00000000	          0.07513890	          0.00000000	          0.00064923	          0.00000000	          0.00000000	          6.85379561	          0.00000000	
          2.45100000	          0.03610425	          0.08964239	         -0.00265951	         -0.00026638	          0.00000000	         -0.00009046	        -14.72142789	        668.54043902	        -44.21881762	          0.21587315	          0.00000000	          0.07511087	          0.00000000	          0.00061845	          0.00000000	          0.00000000	          6.79639209	          0.00000000	
          2.45200000	          0.03385534	          0.08276050	         -0.00261086	         -0.00025698	          0.00000000	         -0.00008735	        -14.39745055	        667.49933459	        -44.11370813	          0.21601355	          0.00000000	          0.07508238	          0.00000000	          0.00058796	          0.00000000	          0.00000000	          6.73906441	          0.00000000	
